<svg width="120" height="120" viewBox="0 0 120 120" fill="none" xmlns="http://www.w3.org/2000/svg">
<g filter="url(#filter0_d_26_1193)">
<circle cx="60" cy="45" r="35" fill="#2278D4"/>
</g>
<path d="M49.3184 45.21L52.8784 47.81L51.5264 51.997C51.3079 52.6464 51.3051 53.349 51.5185 54.0001C51.7319 54.6512 52.15 55.2159 52.7104 55.61C53.2613 56.0168 53.9288 56.2347 54.6136 56.2313C55.2983 56.2279 55.9636 56.0033 56.5104 55.591L59.9914 53.029L63.4734 55.588C64.0233 55.9925 64.6872 56.2121 65.3698 56.2155C66.0524 56.2188 66.7184 56.0056 67.2722 55.6065C67.8259 55.2075 68.2389 54.6431 68.4517 53.9945C68.6645 53.3459 68.6661 52.6466 68.4564 51.997L67.1044 47.81L70.6644 45.21C71.2135 44.8085 71.6218 44.2438 71.8308 43.5964C72.0397 42.949 72.0388 42.2522 71.8281 41.6054C71.6174 40.9586 71.2076 40.3949 70.6574 39.9949C70.1072 39.5949 69.4447 39.379 68.7644 39.378H64.3914L63.0644 35.242C62.8557 34.591 62.4457 34.023 61.8934 33.6201C61.3411 33.2171 60.6751 33 59.9914 33C59.3077 33 58.6417 33.2171 58.0894 33.6201C57.5371 34.023 57.1271 34.591 56.9184 35.242L55.5914 39.378H51.2224C50.5421 39.379 49.8796 39.5949 49.3294 39.9949C48.7792 40.3949 48.3694 40.9586 48.1587 41.6054C47.948 42.2522 47.9471 42.949 48.1561 43.5964C48.365 44.2438 48.7733 44.8085 49.3224 45.21H49.3184Z" fill="#191F30"/>
<defs>
<filter id="filter0_d_26_1193" x="0" y="0" width="120" height="120" filterUnits="userSpaceOnUse" color-interpolation-filters="sRGB">
<feFlood flood-opacity="0" result="BackgroundImageFix"/>
<feColorMatrix in="SourceAlpha" type="matrix" values="0 0 0 0 0 0 0 0 0 0 0 0 0 0 0 0 0 0 127 0" result="hardAlpha"/>
<feOffset dy="15"/>
<feGaussianBlur stdDeviation="12.5"/>
<feColorMatrix type="matrix" values="0 0 0 0 0.133333 0 0 0 0 0.470588 0 0 0 0 0.831373 0 0 0 0.25 0"/>
<feBlend mode="normal" in2="BackgroundImageFix" result="effect1_dropShadow_26_1193"/>
<feBlend mode="normal" in="SourceGraphic" in2="effect1_dropShadow_26_1193" result="shape"/>
</filter>
</defs>
</svg>
