<svg width="12" height="12" viewBox="0 0 12 12" fill="none" xmlns="http://www.w3.org/2000/svg">
<path fill-rule="evenodd" clip-rule="evenodd" d="M6.70727 0.626389C6.31675 0.235865 5.68358 0.235865 5.29306 0.626389C4.90253 1.01691 4.90253 1.65008 5.29306 2.0406L8.25262 5.00016H1.3335C0.781211 5.00016 0.333496 5.44788 0.333496 6.00016C0.333496 6.55245 0.781211 7.00016 1.3335 7.00016H8.25262L5.29306 9.95972C4.90253 10.3502 4.90253 10.9834 5.29306 11.3739C5.68358 11.7645 6.31675 11.7645 6.70727 11.3739L11.3739 6.70727C11.4698 6.61139 11.5422 6.50089 11.591 6.38295C11.6398 6.26504 11.6668 6.13575 11.6668 6.00016C11.6668 5.86457 11.6398 5.73529 11.591 5.61738C11.5422 5.49943 11.4698 5.38893 11.3739 5.29306L6.70727 0.626389Z" fill="#22A75D"/>
</svg>
